<?xml version="1.0" encoding="UTF-8"?>
<svg id="Camada_2" data-name="Camada 2" xmlns="http://www.w3.org/2000/svg" viewBox="0 0 1920 1080">
  <defs>
    
  </defs>
  <g id="Layer_1_copy" data-name="Layer 1 copy">
    <g id="_5" data-name="5">
      <rect fill="#004125" width="1920" height="1080"></rect>
      <g>
        <path fill="#b8902e" d="M759.74,366.8l2.83,14.37c1.2,6.07,2.64,10.44,4.13,11.6.35.32.45.78-.3.93l-14.18,2.79c-.75.15-.84-.32-.63-.75.83-1.71.62-6.23-.58-12.29l-6.62-33.6c-1.2-6.07-2.73-10.42-4.15-11.69-.33-.23-.43-.69.32-.84l36.49-7.19c1.49-.29,1.88-.27,2.18,1.22l1.49,7.07c-.15.22-.88.46-1.4.28-2.53-2.02-8.42-3.38-13.09-2.46l-12.04,2.37,4.76,24.17,11.85-2.34c3.92-.77,7.4-3.3,8.48-3.71.28-.06.39.02.5.09l1.49,7.56c-.08.11-.15.22-.43.28-1.16.03-4.77-1.1-9.25-.21l-11.85,2.33Z"></path>
        <path fill="#b8902e" d="M800.35,387.4l-9.7,1.36c-.56.08-.72-.38-.31-.82,1.55-1.95,3.42-6.43,5.87-15.04l13.54-48,6.5-.91,23.6,42.32c3.32,5.87,6.82,10.96,9.15,13.22.33.34.52.98-.23,1.09l-14.13,1.98c-.94.13-1.08-.14-1.18-.89-.06-2.49-2.62-7.7-6.06-13.75l-2.73-5.09-20.91,2.93-1.63,6.18c-2.01,7.58-1.91,13.14-1.05,14.46.15.36.02.86-.73.97ZM804.74,361.81l17.9-2.51-11.65-21.42-6.25,23.93Z"></path>
        <path fill="#b8902e" d="M860.96,366.06l-1.24-40.72c-.75-1.29-2.68-4.5-3.89-5.47-.4-.35-.33-.74.24-.78l12.53-.82c1.42-.09,1.52-.1,2.28,1.28l23.56,43.74,15.46-43.34c1.62-4.3,1.99-4.52,4.18-4.66l9.97-.65c.57-.04.69.34.43.73-1.38,2.28-1.4,7.72-.79,14.07l3.17,32.4c.78,7.58,1.56,10.67,2.88,12.01.31.36.34.84-.42.89l-14.33.94c-.76.05-.79-.42-.63-.82,1.04-1.59,1.68-4.88,1.01-12.27l-3.28-35.44-17.9,49.7c-1.11.45-4.25.66-4.84.32l-24.75-46.04,1.41,34.61c.25,6.75,1.37,10.78,2.23,12.15.32.46.25.84-.32.88l-7.69.5c-.67.04-.59-.34-.44-.83.66-1.57,1.43-5.81,1.19-12.38Z"></path>
        <path fill="#b8902e" d="M960.41,361.64c.06,6.18.77,10.74,2.03,12.16.29.38.29.85-.56.86l-14.46.15c-.76,0-.77-.47-.48-.85,1.13-1.53,1.75-6.01,1.68-12.19l-.35-34.24c-.06-6.18-.77-10.74-1.93-12.25-.29-.28-.29-.76.47-.77l14.46-.15c.86,0,.86.47.58.76-1.22,1.63-1.84,6.11-1.78,12.29l.35,34.24Z"></path>
        <path fill="#b8902e" d="M1011.66,313.85c9.7.35,16.1,2.19,19.28,3.83,1.68.92,2.05,1.22,1.5,3.29l-1.44,5.66c-.4.46-1.34.33-1.71.03-2.64-3.33-7.71-8.08-17.12-8.42-13.78-.49-20.82,10.01-21.51,26.55-.59,16.54,5.98,27.06,19.38,27.54,4.09.15,8.1-.28,11.19-1.41l.34-9.51c.28-7.7-.56-10.97-1.74-12.53-.27-.39-.26-.77.5-.74l12.93.46c.76.03.75.41.45.78-1.2,1.48-1.74,5.93-1.96,12.3l-.5,13.97c-.02.48-.12.76-.97.54l-6.8-1.39c-3.66,1.2-9.4,2.04-15.48,1.83-18.73-.67-31.49-11.12-30.73-32.32.74-20.63,15.2-31.15,34.41-30.46Z"></path>
        <path fill="#b8902e" d="M1047.53,377.62c-.76-.07-.71-.54-.4-.9,1.28-1.41,2.35-5.8,2.92-11.96l3.15-34.1c.57-6.16.33-10.77-.67-12.39-.26-.31-.21-.78.54-.71l14.3,1.32c.85.08.81.55.5.81-1.29,1.51-2.36,5.9-2.93,12.05l-3.69,39.97c-.26,2.84,0,3.06,2.37,3.28l7.58.7c7.1.66,13.59-3.43,16.09-5.58.72-.51,1.83-.21,1.69.35l-3.04,9.08c-.52,1.48-1.57,1.48-2.14,1.43l-36.28-3.35Z"></path>
        <path fill="#b8902e" d="M1113.76,371.78c-.82,6.13-.77,10.74.26,12.32.23.42.17.89-.68.77l-14.33-1.93c-.75-.1-.69-.57-.36-.91,1.33-1.36,2.59-5.7,3.41-11.83l4.57-33.94c.82-6.13.77-10.74-.16-12.4-.25-.32-.18-.79.57-.69l14.33,1.93c.85.11.79.59.46.83-1.44,1.44-2.7,5.78-3.52,11.91l-4.57,33.94Z"></path>
        <path fill="#b8902e" d="M1134.48,387.93l-9.63-1.79c-.56-.1-.57-.59-.03-.88,2.09-1.35,5.29-5.01,10.34-12.39l28.1-41.21,6.45,1.2,8.93,47.63c1.28,6.63,2.98,12.56,4.48,15.45.21.43.18,1.1-.57.96l-14.03-2.61c-.94-.17-.98-.47-.84-1.22.73-2.38-.03-8.13-1.37-14.96l-.97-5.7-20.76-3.87-3.51,5.35c-4.32,6.55-5.98,11.85-5.59,13.38.02.39-.25.82-1,.68ZM1146.78,365.06l17.77,3.31-4.23-24.01-13.53,20.7Z"></path>
      </g>
      <g>
        <path fill="#efe4c9" d="M513.81,627.19c-15.81,0-22.67-4.5-31.81-21.54l-10.29-18.61c-8.76-15.87-10.48-19.98-17.91-19.98-1.72,0-2.86.2-2.86.2,0,47.2.95,48.18,4.76,55.43l1.72,3.33s-6.86-.39-22.29-.39-22.48.39-22.48.39l1.72-3.33c3.81-7.05,4.76-8.81,4.76-67.57s-.76-57.78-4.76-65.61l-1.72-3.33s7.62.39,17.72.39c6.29,0,21.34-.39,27.62-.39,29.91,0,59.25,1.37,59.25,36.04,0,28.6-20.95,37.8-38.67,38.39,14.29,1.96,20.19,8.42,28.19,24.29l10.48,20.96c5.14,9.79,8.38,14.69,15.24,17.82,0,0-3.24,3.53-18.67,3.53ZM458.38,503.8c-4.95,0-7.43.39-7.43.39v45.05s2.28.39,8.19.39c3.43,0,7.43-.39,10.48-1.37,8-1.96,13.72-8.42,13.72-21.74,0-19-9.72-22.72-24.95-22.72Z"></path>
        <path fill="#efe4c9" d="M627.92,618.37l-.38,7.44h-74.49c-10.29,0-14.67.2-14.67.2l1.72-3.33c3.81-7.25,4.76-8.81,4.76-67.57s-.76-57.78-4.76-65.61l-1.72-3.33s4.19.2,14.48.2h72.77s-.19,4.31-.19,13.91c0,10.18.38,15.08.38,15.47-.19-.2-1.33-1.96-6.67-5.29-4.57-2.74-12-4.31-20.95-4.31h-20.19v39.76h15.62c8.95,0,16.38-.98,20.95-3.72,4.95-2.94,6.48-4.7,6.86-5.09,0,.2-.57,5.68-.57,19,0,12.34.57,18.22.57,18.61-.19-.2-1.52-1.96-6.86-5.29-4.57-2.74-12-3.72-20.95-3.72h-15.62v40.35h18.29c23.62,0,26.67-5.68,33.72-16.26,0,0-.95,7.84-2.1,28.6Z"></path>
        <path fill="#efe4c9" d="M670.39,625.62c-16.19,0-23.24.39-23.24.39l1.72-3.33c3.81-7.44,4.76-8.81,4.76-67.57s-.76-57.78-4.76-65.61l-1.72-3.33s6.48.39,23.05.39,23.24-.39,23.24-.39l-1.71,3.33c-3.81,7.44-4.76,8.81-4.76,67.57s.76,57.78,4.76,65.61l1.71,3.33s-6.86-.39-23.05-.39Z"></path>
        <path fill="#efe4c9" d="M748.31,627.19c-24.57,0-36.58-5.88-36.58-5.88,0,0,.38-4.5.38-15.28,0-11.75-.38-19-.38-19,6.67,9.99,15.81,19.59,34.29,19.59,12.76,0,23.05-2.94,23.05-15.47,0-9.79-6.1-13.32-15.24-18.41l-15.62-9.01c-14.86-8.42-26.67-19-26.67-39.17,0-26.44,16.95-39.56,48.77-39.56,22.67,0,34.48,5.68,34.48,5.68,0,0-.38,4.7-.38,15.87s.38,18.02.38,18.02c-7.62-11.36-17.15-19.19-32.19-19.19-12.38,0-20.38,3.53-20.38,13.71,0,9.21,6.48,12.34,16.76,18.21l13.53,7.64c16.57,9.21,27.43,19.39,27.43,40.94,0,32.32-22.67,41.33-51.63,41.33Z"></path>
        <path fill="#efe4c9" d="M980.78,625.62c-16.38,0-23.05.39-23.05.39l1.72-3.33c3.62-6.86,4.76-9.79,4.76-67.57v-38.19c-.19.39-3.24,10.97-8.57,23.31l-30.67,70.9-30.48-70.71c-5.52-12.54-8.19-21.94-8.57-23.31v39.96c0,57,.76,57.78,4.76,65.61l1.71,3.33s-6.29-.39-17.91-.39-18.48.39-18.48.39l1.72-3.33c3.81-7.44,4.76-8.81,4.76-67.57s-.76-57.78-4.76-65.61l-1.72-3.33s7.62.39,24.96.39c15.81,0,22.48-.39,22.48-.39l22.67,52.69c2.1,4.9,2.67,7.64,2.86,8.03,0-.39.76-2.74,3.05-8.03l22.86-52.69s7.24.39,23.43.39,24.95-.39,24.95-.39l-1.71,3.33c-3.81,7.25-4.76,8.81-4.76,67.57s.76,57.78,4.76,65.61l1.71,3.33s-6.29-.39-22.48-.39Z"></path>
        <path fill="#efe4c9" d="M1121.18,625.62c-13.91,0-25.34.39-25.34.39,2.48-1.76,6.1-5.09,6.1-12.34,0-6.07-2.48-15.67-5.33-27.22l-2.1-8.23h-38.86l-2.1,8.23c-2.86,11.56-5.52,21.15-5.52,27.22,0,7.25,3.62,10.58,6.1,12.34,0,0-8.76-.39-21.53-.39s-20.57.39-20.57.39c7.05-7.05,10.48-19.19,18.1-46.42l22.48-81.67c.57-2.35,1.14-4.7,1.14-7.25s-.95-3.72-1.33-4.11h56.2c0,.2-1.14,1.37-1.14,4.11,0,2.55.38,4.9.95,7.25l20.76,81.67c7.05,27.42,10.29,39.37,17.34,46.42,0,0-10.1-.39-25.34-.39ZM1078.12,510.65c-2.1-8.42-2.86-12.93-3.05-14.3-.19.98-.76,5.09-3.05,14.3l-11.62,47.79h29.34l-11.62-47.79Z"></path>
        <path fill="#efe4c9" d="M1267.04,561.86c-3.62,6.85-4.76,12.06-4.76,58.08v1.18s-15.05,6.07-40.19,6.07c-41.72,0-72.58-20.17-72.58-67.96,0-51.32,27.24-74.23,74.1-74.23,26.86,0,38.1,5.68,38.1,5.68,0,0-.38,4.11-.38,16.26,0,10.38.38,17.24.38,17.24-8.95-13.12-16.95-18.61-34.48-18.61-25.15,0-42.67,13.51-42.67,52.1,0,31.92,9.53,49.94,38.29,49.94,4.95,0,7.62-.59,7.62-.59,0-28.6-.95-38.3-4.76-45.16l-1.9-3.33s7.05.39,22.29.39c16.57,0,22.67-.39,22.67-.39l-1.72,3.33Z"></path>
        <path fill="#efe4c9" d="M1345.46,628.36c-42.48,0-64.01-25.46-64.01-69.92,0-37.8,17.15-73.84,63.63-73.84,42.48,0,64.01,25.46,64.01,69.92,0,37.8-17.15,73.84-63.63,73.84ZM1345.46,504.77c-19.24,0-28,16.06-28,52.1s8.57,51.32,27.62,51.32,28-16.06,28-52.1-8.57-51.32-27.62-51.32Z"></path>
        <path fill="#efe4c9" d="M1458.93,627.19c-24.57,0-36.58-5.88-36.58-5.88,0,0,.38-4.5.38-15.28,0-11.75-.38-19-.38-19,6.67,9.99,15.81,19.59,34.29,19.59,12.76,0,23.05-2.94,23.05-15.47,0-9.79-6.1-13.32-15.24-18.41l-15.62-9.01c-14.86-8.42-26.67-19-26.67-39.17,0-26.44,16.95-39.56,48.77-39.56,22.67,0,34.48,5.68,34.48,5.68,0,0-.38,4.7-.38,15.87s.38,18.02.38,18.02c-7.62-11.36-17.15-19.19-32.19-19.19-12.38,0-20.38,3.53-20.38,13.71,0,9.21,6.48,12.34,16.76,18.21l13.53,7.64c16.57,9.21,27.43,19.39,27.43,40.94,0,32.32-22.67,41.33-51.63,41.33Z"></path>
      </g>
      <g>
        <path fill="#b8902e" d="M867.12,732.61l5.44-15.26h4.73l-5.3,14.26c-4.51,11.82-6.73,18.2-6.73,19.2,0,1.15.72,1.86,1.65,1.86,1.36,0,3.3-1.29,5.8-3.87,2.51-2.65,4.8-6.16,6.88-10.67l2.22.93c-2.29,5.16-5.01,9.53-8.09,13.04-3.08,3.51-6.09,5.23-9.03,5.23s-4.58-2.08-4.23-5.16h-.29c-2.44,3.44-5.01,5.16-7.81,5.16-3.22,0-4.94-2.79-4.94-7.02,0-2.79.64-5.8,1.86-8.96,1.22-3.22,3.01-5.95,5.3-8.31,2.36-2.36,4.87-3.51,7.52-3.51s4.23,1,4.73,3.08h.29ZM861.96,745.5c.64-1.79,2.36-6.23,3.22-8.67.86-2.36.14-4.15-2.08-4.15-5.09-.29-10.82,10.75-10.53,16.26,0,2.51.86,3.8,2.51,3.8,2.08,0,4.8-2.15,5.95-4.94l.93-2.29Z"></path>
        <path fill="#b8902e" d="M903.72,738.98c-2.22,5.23-5.37,9.6-9.38,13.11-3.94,3.51-7.59,5.23-10.96,5.23-4.51,0-7.67-3.65-7.67-8.31s1.5-8.88,4.58-13.11c3.08-4.23,6.59-6.38,10.53-6.38,3.51,0,5.37,1.93,5.37,4.87,0,2.29-1,4.15-2.94,5.66-1.93,1.43-4.15,2.15-6.59,2.15-1.5,0-2.94-.36-4.3-1-.79,2.44-1.22,4.58-1.22,6.45,0,3.51,1.36,5.3,4.01,5.3,2.44,0,5.23-1.36,8.31-4.08,3.15-2.72,5.8-6.3,8.02-10.82l2.22.93ZM883.16,739.2c.86.36,1.79.5,2.72.5,3.44,0,6.3-2.44,6.3-5.52,0-1.5-.64-2.22-1.93-2.22-2.51,0-5.16,3.01-7.09,7.24Z"></path>
        <path fill="#b8902e" d="M897.56,748.87c-.22,3.08,1.36,5.44,3.58,5.44,2.58,0,4.51-3.15,4.51-7.95,0-.64-.07-2.08-.29-4.3-.21-2.22-.29-4.23-.21-6.09h-.22c-1,2.79-2.01,5.01-3.08,6.66l-2.22-.93c2.58-5.59,4.15-9.38,4.66-11.39h5.37c-.36,1.36-.57,2.87-.57,4.37,0,1.65.29,3.87.79,6.66.57,2.72.86,4.58.86,5.66,0,2.58-.79,3.94-2.79,6.16l.14.22c4.23-2.72,8.24-7.95,11.89-15.69l2.08.93c-5.16,12.89-12.39,19.2-19.2,19.2-4.51,0-7.38-2.72-7.31-8.45l2.01-.5Z"></path>
        <path fill="#b8902e" d="M935.46,732.61l5.44-15.26h4.73l-5.3,14.26c-4.51,11.82-6.73,18.2-6.73,19.2,0,1.15.72,1.86,1.65,1.86,1.36,0,3.3-1.29,5.8-3.87,2.51-2.65,4.8-6.16,6.88-10.67l2.22.93c-2.29,5.16-5.01,9.53-8.09,13.04-3.08,3.51-6.09,5.23-9.03,5.23s-4.58-2.08-4.23-5.16h-.29c-2.44,3.44-5.01,5.16-7.81,5.16-3.22,0-4.94-2.79-4.94-7.02,0-2.79.64-5.8,1.86-8.96,1.22-3.22,3.01-5.95,5.3-8.31,2.36-2.36,4.87-3.51,7.52-3.51s4.23,1,4.73,3.08h.29ZM930.3,745.5c.64-1.79,2.36-6.23,3.22-8.67.86-2.36.14-4.15-2.08-4.15-5.09-.29-10.82,10.75-10.53,16.26,0,2.51.86,3.8,2.51,3.8,2.08,0,4.8-2.15,5.95-4.94l.93-2.29Z"></path>
        <path fill="#b8902e" d="M968.7,747.15c-.64,3.08-2.36,5.73-5.23,7.95-2.79,2.22-5.95,3.3-9.38,3.3-5.66,0-10.03-3.15-10.03-9.38,0-4.51,1.5-8.88,4.58-13.11,3.08-4.23,6.59-6.38,10.53-6.38,3.51,0,5.37,1.93,5.37,4.87,0,2.29-1,4.15-2.94,5.66-1.93,1.43-4.15,2.15-6.59,2.15-1.5,0-2.94-.36-4.3-1-.79,2.44-1.22,4.58-1.22,6.45,0,4.3,2.29,6.38,5.52,6.38,2.51,0,5.01-1.15,7.66-3.37,2.65-2.29,4.51-4.87,5.52-7.67.64,1.07.86,2.51.5,4.16ZM951.51,739.2c.86.36,1.79.5,2.72.5,3.44,0,6.3-2.44,6.3-5.52,0-1.5-.64-2.22-1.93-2.22-2.51,0-5.16,3.01-7.09,7.24Z"></path>
        <path fill="#b8902e" d="M992.7,732.18c-2.65,3.65-5.16,6.09-7.59,7.45l-1.72-2.22c4.15-2.44,8.45-6.81,12.9-13.04h2.65l-9.74,32.59h-5.8l9.6-24.79h-.29Z"></path>
        <path fill="#b8902e" d="M1015.76,745.72c-1.79,3.08-5.01,4.66-7.95,4.66-4.3,0-7.81-3.44-7.81-9.24,0-4.01,1.22-7.81,3.72-11.39,2.51-3.58,5.73-5.37,9.6-5.37,5.52,0,10.03,4.08,10.03,11.6,0,4.51-.86,8.96-2.58,13.47-1.72,4.51-4.23,8.31-7.59,11.39-3.3,3.15-6.95,4.73-10.96,4.73-9.67.57-8.02-11.32-1.65-11.18,2.36,0,3.94,1.65,3.94,3.65,0,.79-.21,1.5-.72,2.15-.07-1.65-1.07-2.58-2.22-2.58-1.36,0-2.58,1.15-2.58,2.65,0,1.72,1.22,3.01,3.51,3.01,2.01,0,3.94-1,5.87-3.08,3.94-4.08,6.02-9.1,7.66-14.47h-.29ZM1015.26,742.78c1.65-3.22,2.51-6.52,2.51-9.81,0-3.65-1.5-5.95-3.87-5.95-2.22,0-4.16,1.65-5.8,4.94-1.58,3.29-2.36,6.59-2.36,9.96,0,3.8,1.22,5.66,3.65,5.66,2.22,0,4.23-1.58,5.87-4.8Z"></path>
        <path fill="#b8902e" d="M1042.77,736.69c3.08,4.15,4.58,7.59,4.58,10.24,0,3.08-1.36,5.59-4.16,7.52-2.79,1.93-5.8,2.87-9.03,2.87-2.65,0-5.01-.65-7.02-2.01-1.93-1.36-2.94-3.3-2.94-5.73,0-2.58,1-4.58,3.65-6.59,1.36-1,2.51-1.79,3.58-2.44,1.07-.64,2.65-1.58,4.73-2.65-.93-1.22-1.65-2.15-2.15-2.94-.93-1.5-2.08-4.23-2.08-6.59,0-3.08,1.15-5.52,3.44-7.31,2.29-1.79,4.94-2.65,7.88-2.65,5.09,0,9.17,2.87,9.17,7.74,0,4.08-3.22,7.59-9.67,10.53ZM1037.11,739.63c-4.94,3.29-7.45,6.66-7.45,10.17,0,3.15,2.29,4.94,5.16,4.94,3.51,0,6.66-2.58,6.66-6.66,0-2.29-1.29-5.09-3.94-8.45h-.43ZM1041.7,734.83c3.8-2.79,6.02-6.38,6.02-9.53s-2.22-4.87-5.01-4.87c-3.08,0-6.02,2.22-6.02,5.37,0,2.01,1.58,5.01,4.66,9.03h.36Z"></path>
        <path fill="#b8902e" d="M1075.15,750.73c.21,4.23-3.22,7.74-8.31,7.95l-2.22,6.38h-6.3l3.44-7.16c-.86-.22-1.93-.57-3.22-1-2.51-.93-4.3-1.58-5.66-1.58-1.15,0-2.08.43-2.79,1.29l-1.93-2.08c2.94-2.01,7.52-6.59,12.03-12.03,2.22-2.79,4.23-5.8,5.95-9.03s2.72-6.16,2.94-8.74h6.73c-1.07,3.94-3.94,8.81-8.45,14.54-4.51,5.73-8.81,10.17-12.9,13.25l.21.29c2.08-.86,3.94-1.29,5.59-1.29,1,0,2.44.22,4.23.57l7.31-15.19h2.58l-5.66,16.26c.79.07,1.29.14,1.65.14,1.93,0,3.51-.86,4.8-2.58Z"></path>
      </g>
    </g>
  </g>
</svg>